<svg viewBox="147.84 101.62 91.6 56.84" xmlns="http://www.w3.org/2000/svg"><path class="st1" d="M164.84 158.17h3.7v-14.1h-3.7v14.1zm-5.9-14.1-3.4 6.2-3.4-6.2h-3.6l-.7 14.1h3.6l.3-8.3 2.7 4.8h2.1l2.5-4.8.3 8.3h3.8l-.7-14.1h-3.5zm15.3 0h-3.7v14.1h9.9v-3.3h-6.2v-10.8zm58.4 3.5c0-.6.4-.9 1.3-.9 1 0 2.5.6 3.4 1.3l1.9-2.5a8.53 8.53 0 0 0-5.2-1.7c-3.9 0-5.5 2.2-5.5 4.3 0 4.4 6.7 4.3 6.7 6.1 0 .7-.8 1.1-1.6 1.1-1.3 0-2.7-.7-3.6-1.6l-2.2 2.7c1.3 1.2 3.3 2.1 5.9 2.1 3.3 0 5.7-2.3 5.7-4.7.1-4.5-6.8-4.2-6.8-6.2zm-26.8-3.9c-4.5 0-7.3 3.3-7.3 7.4 0 4 2.7 7.4 7.3 7.4 4.5 0 7.3-3.6 7.3-7.4 0-4-2.9-7.4-7.3-7.4zm0 11.4c-2 0-3.5-1.5-3.5-3.9s1.4-3.9 3.5-3.9c2.3 0 3.5 1.9 3.5 3.9-.1 2.3-1.5 3.9-3.5 3.9zm17.5-3.1-5.4-7.9h-3.4v14.1h3.7v-8.1l5.6 8.1h3.2v-14.1h-3.7v7.9zm-37.8-7.9h-3.7v14.1h9.9v-3.3h-6.2v-10.8zm7.6 14.1h3.7v-14.1h-3.7v14.1zm19.8-15.6c4.5 0 7.3-3.6 7.3-7.4 0-4-2.9-7.4-7.3-7.4-4.5 0-7.3 3.3-7.3 7.4 0 3.9 2.6 7.4 7.3 7.4zm0-11.4c2.3 0 3.5 1.9 3.5 3.9 0 2.4-1.4 3.9-3.5 3.9-2 0-3.5-1.5-3.5-3.9 0-2.3 1.5-3.9 3.5-3.9zm-21.4 5.5v-8.6h-3.8v8.3c0 1.6-.7 2.6-2.3 2.6-1.7 0-2.3-1.1-2.3-2.6v-8.3h-3.7v8.6c0 3.1 1.9 5.9 6.1 5.9 4.3 0 6-3.2 6-5.9zm5.3.7h2.2l2.4 4.8h4l-3-5.4c1.4-.8 2.2-2.1 2.2-4.1 0-2.5-1.5-4.6-5-4.6h-6.4v14.1h3.7l-.1-4.8zm0-6.3h2.4c1.1 0 1.7.6 1.7 1.7 0 1-.6 1.7-1.7 1.7h-2.4v-3.4zm-18.6 7.9h-6.9v-2.4h5.3v-3h-5.3v-2.2h6.4v-3.2h-10.1v14.1h10.6v-3.3z" fill="#0f1a65"/><g transform="translate(135.74 88.77)"><linearGradient id="a" gradientUnits="userSpaceOnUse" x1="626.99" y1="-1096.64" x2="651.83" y2="-1115.35" gradientTransform="scale(1 -1) rotate(25 -2066.32 -1807.15)"><stop offset="0" stop-color="#9b834f"/><stop offset=".17" stop-color="#b09754"/><stop offset=".38" stop-color="#bea458"/><stop offset=".6" stop-color="#d3bc5f"/><stop offset=".8" stop-color="#dcc764"/><stop offset="1" stop-color="#e8d366"/></linearGradient><path class="st2" d="M93.2 33.8c-.4 0-1 .2-1.2.6l-5.3 7.1c-.3.3-.6.3-.7-.1l-2.3-8.6c-.1-.4-.5-.9-.9-1l-8.4-2.9c-.4-.1-.4-.4-.1-.7l7.5-4.8c.4-.2.7-.8.7-1.2l.1-8.9c0-.4.3-.6.6-.3l6.9 5.7c.3.3.9.4 1.3.3l8.5-2.7c.4-.1.6.1.5.5l-3.2 8.3c-.2.4-.1 1 .2 1.4l5.1 7.2c.2.3.1.6-.3.6l-9-.5z" fill="url(#a)"/><linearGradient id="b" gradientUnits="userSpaceOnUse" x1="617.96" y1="-1086.15" x2="627.59" y2="-1093.35" gradientTransform="scale(1 -1) rotate(25 -2066.32 -1807.15)"><stop offset="0" stop-color="#a28952"/><stop offset=".2" stop-color="#b09754"/><stop offset=".48" stop-color="#c2aa5b"/><stop offset=".72" stop-color="#dcc764"/><stop offset="1" stop-color="#e8d366"/></linearGradient><path d="M69.1 22.8c-.2 0-.4.1-.5.2l-2.1 2.8c-.1.1-.2.1-.3-.1l-.9-3.4c0-.2-.2-.3-.4-.4l-3.3-1.1c-.2-.1-.2-.2 0-.3l2.9-1.9c.1-.1.3-.3.3-.5v-3.5c0-.2.1-.2.2-.1l2.7 2.3c.1.1.4.2.5.1l3.3-1.1c.2-.1.2 0 .2.2l-1.2 3.3c-.1.2 0 .4.1.5l2 2.9c.1.1 0 .2-.1.2l-3.4-.1z" fill="url(#b)"/><linearGradient id="c" gradientUnits="userSpaceOnUse" x1="615.3" y1="-1099.93" x2="620.83" y2="-1104.06" gradientTransform="scale(1 -1) rotate(25 -2066.32 -1807.15)"><stop offset="0" stop-color="#a28952"/><stop offset=".2" stop-color="#b09754"/><stop offset=".48" stop-color="#c2aa5b"/><stop offset=".72" stop-color="#dcc764"/><stop offset="1" stop-color="#e8d366"/></linearGradient><path d="M69.4 35c-.1 0-.2.1-.3.1l-1.2 1.6c-.1.1-.1.1-.1 0l-.5-2c0-.1-.1-.2-.2-.2l-1.9-.7c-.1 0-.1-.1 0-.2l1.7-1.1c.1-.1.1-.2.1-.3v-2.1c0-.1.1-.1.1-.1l1.5 1.3c.1.1.2.1.3.1l1.9-.6c.1 0 .1 0 .1.1l-.7 2.1v.3l1.1 1.7c.1.1 0 .1-.1.1l-1.8-.1z" fill="url(#c)"/><linearGradient id="d" gradientUnits="userSpaceOnUse" x1="601.5" y1="-1091.2" x2="607.23" y2="-1095.48" gradientTransform="scale(1 -1) rotate(25 -2066.32 -1807.15)"><stop offset="0" stop-color="#a28952"/><stop offset=".2" stop-color="#b09754"/><stop offset=".48" stop-color="#c2aa5b"/><stop offset=".72" stop-color="#dcc764"/><stop offset="1" stop-color="#e8d366"/></linearGradient><path d="M53.4 32.9c-.1 0-.2.1-.3.1l-1.2 1.7c-.1.1-.1.1-.2 0l-.5-2.1c0-.1-.1-.2-.2-.2l-2-.7c-.1 0-.1-.1 0-.2l1.7-1.1c.1-.1.2-.2.2-.3V28c0-.1.1-.1.1-.1l1.6 1.4c.1.1.2.1.3.1l1.9-.6c.1 0 .1 0 .1.1l-.7 2v.3l1.2 1.7c.1.1 0 .1-.1.1l-1.9-.1z" fill="url(#d)"/><linearGradient id="e" gradientUnits="userSpaceOnUse" x1="611.33" y1="-1092.02" x2="615.17" y2="-1094.89" gradientTransform="scale(1 -1) rotate(25 -2066.32 -1807.15)"><stop offset="0" stop-color="#a28952"/><stop offset=".2" stop-color="#b09754"/><stop offset=".48" stop-color="#c2aa5b"/><stop offset=".72" stop-color="#dcc764"/><stop offset="1" stop-color="#e8d366"/></linearGradient><path d="M61.2 28.8c-.1 0-.2 0-.2.1l-.8 1.2c0 .1-.1 0-.1 0l-.3-1.4c0-.1-.1-.1-.1-.2l-1.3-.5c-.1 0-.1-.1 0-.1l1.2-.8c.1 0 .1-.1.1-.2v-1.4c0-.1 0-.1.1 0l1.1.9c.1 0 .1.1.2 0l1.3-.4c.1 0 .1 0 .1.1l-.5 1.3v.2l.8 1.2c0 .1 0 .1-.1.1l-1.5-.1z" fill="url(#e)"/><linearGradient id="f" gradientUnits="userSpaceOnUse" x1="597.26" y1="-1084.33" x2="600.74" y2="-1086.93" gradientTransform="scale(1 -1) rotate(25 -2066.32 -1807.15)"><stop offset="0" stop-color="#a28952"/><stop offset=".2" stop-color="#b09754"/><stop offset=".48" stop-color="#c2aa5b"/><stop offset=".72" stop-color="#dcc764"/><stop offset="1" stop-color="#e8d366"/></linearGradient><path d="M44.9 27.7c-.1 0-.1 0-.2.1l-.7 1c0 .1-.1 0-.1 0l-.3-1.3c0-.1-.1-.1-.1-.1l-1.2-.4c-.1 0-.1-.1 0-.1l1-.7c.1 0 .1-.1.1-.2v-1.3c0-.1 0-.1.1 0l1 .8s.1.1.2 0l1.2-.4c.1 0 .1 0 .1.1l-.5 1.2v.2l.7 1.1v.1l-1.3-.1z" fill="url(#f)"/></g></svg>